<?xml version="1.0" encoding="utf-8"?>
<!-- Generator: Adobe Illustrator 21.1.0, SVG Export Plug-In . SVG Version: 6.00 Build 0)  -->
<svg version="1.1" id="Layer_1" xmlns="http://www.w3.org/2000/svg" xmlns:xlink="http://www.w3.org/1999/xlink" x="0px" y="0px"
	 width="800px" height="800px" viewBox="0 0 800 800" style="enable-background:new 0 0 800 800;" xml:space="preserve">
<style type="text/css">
	.st0{fill:#000000;}
</style>
<g>
	<path class="st0" d="M400,800c-54,0-106.4-10.6-155.7-31.4c-47.6-20.1-90.4-49-127.1-85.7s-65.6-79.5-85.7-127.1
		C10.6,506.4,0,454,0,400s10.6-106.4,31.4-155.7c20.1-47.6,49-90.4,85.7-127.1s79.5-65.6,127.1-85.7C293.6,10.6,346,0,400,0
		s106.4,10.6,155.7,31.4c47.6,20.1,90.4,49,127.1,85.7s65.6,79.5,85.7,127.1C789.4,293.6,800,346,800,400s-10.6,106.4-31.4,155.7
		c-20.1,47.6-49,90.4-85.7,127.1c-36.7,36.7-79.5,65.6-127.1,85.7C506.4,789.4,454,800,400,800z M400,25c-50.6,0-99.7,9.9-146,29.5
		c-44.7,18.9-84.8,45.9-119.2,80.4S73.4,209.4,54.5,254C34.9,300.3,25,349.4,25,400s9.9,99.7,29.5,146
		c18.9,44.7,45.9,84.8,80.4,119.2c34.4,34.4,74.5,61.5,119.2,80.4c46.2,19.6,95.3,29.5,146,29.5s99.7-9.9,146-29.5
		c44.7-18.9,84.8-45.9,119.2-80.4s61.5-74.5,80.4-119.2c19.6-46.2,29.5-95.3,29.5-146c0-50.6-9.9-99.7-29.5-146
		c-18.9-44.7-45.9-84.8-80.4-119.2S590.6,73.3,546,54.5C499.7,34.9,450.6,25,400,25z"/>
</g>
<g>
	<path class="st0" d="M255.1,183c0.4-1.2,1.2-1.8,2.4-1.8h30c1.3,0,2,0.6,2,1.8c0,0.6-0.4,2.2-1.2,4.8c-0.8,2.6-1.8,5.8-3.1,9.6
		c-1.3,3.8-2.7,8-4.4,12.7c-1.6,4.7-3.4,9.4-5.2,14.3c-1.8,4.9-3.6,9.7-5.5,14.4c-1.8,4.7-3.5,9-5.1,12.9c-1.7,4.3-3.1,7.7-4.1,10.5
		c-1,2.7-1.5,4.9-1.5,6.6v34.4c0,1.2-0.6,1.8-1.8,1.8h-31.1c-1.2,0-1.8-0.6-1.8-1.8v-34.4c0-1,0-1.8-0.1-2.5
		c-0.1-0.7-0.3-1.6-0.6-2.7c-0.4-1.2-0.9-2.7-1.6-4.6c-0.7-1.9-1.8-4.5-3.1-7.7c-3.6-9.1-6.9-17.6-9.8-25.5
		c-2.9-7.9-5.4-14.8-7.5-20.9c-2.1-6-3.7-10.9-4.8-14.8c-1.2-3.8-1.7-6.2-1.7-7.2c0.2-1.2,0.9-1.8,2-1.8h30.2c0.5,0,1,0.1,1.5,0.4
		c0.5,0.2,0.9,0.7,1.2,1.5c0.4,1.7,1,4.7,2,9c1,4.3,2,8.9,3.1,13.7c1.1,4.9,2.2,9.5,3.3,13.8c1.1,4.4,1.9,7.5,2.5,9.5
		c0.1,0.5,0.5,0.7,1.3,0.7c0.7,0,1.2-0.2,1.3-0.7c0.4-1.2,0.9-3,1.5-5.5c0.7-2.4,1.4-5.2,2.1-8.2c0.7-3,1.5-6.2,2.3-9.5
		c0.8-3.3,1.5-6.4,2.3-9.4c0.7-3,1.4-5.7,1.9-8.1C254.5,186,254.9,184.2,255.1,183z"/>
	<path class="st0" d="M392.8,243.1c0,11.5-1.1,21.9-3.3,31c-2.2,9.1-5.2,16-9.1,20.8c-3.6,4.6-8.3,7.7-14,9.3
		c-5.7,1.6-12.8,2.4-21.3,2.4c-8.5,0-15.5-0.8-21-2.4c-5.5-1.6-10.2-4.7-13.9-9.3c-3.9-4.7-6.9-11.7-9-20.8
		c-2.1-9.1-3.2-19.4-3.2-31c0-11.7,1.1-22,3.2-31c2.1-9,5.1-15.8,9-20.6c3.8-4.6,8.5-7.7,14.1-9.4c5.6-1.6,12.8-2.5,21.4-2.5
		c8.5,0,15.5,0.8,21,2.5c5.5,1.6,10.1,4.8,13.7,9.4c3.9,4.7,6.9,11.6,9.1,20.6C391.7,221.1,392.8,231.4,392.8,243.1z M335.2,243.1
		c0,6.2,0.2,11.7,0.5,16.6c0.3,4.9,0.8,8.3,1.5,10.4c0.6,1.5,1.7,2.5,3.3,3c1.6,0.5,3.2,0.8,4.9,0.8c1.8,0,3.5-0.3,4.9-0.8
		c1.5-0.5,2.5-1.5,3.1-3c0.8-2.1,1.4-5.5,1.6-10.4c0.2-4.9,0.4-10.4,0.4-16.6c0-6.4-0.1-12-0.4-16.8c-0.2-4.7-0.8-8.1-1.6-10.2
		c-0.6-1.5-1.6-2.5-3.1-3c-1.5-0.5-3-0.8-4.7-0.8c-1.8,0-3.5,0.3-5.1,0.8c-1.6,0.5-2.7,1.5-3.3,3c-0.7,2.1-1.2,5.5-1.5,10.2
		C335.4,231,335.2,236.6,335.2,243.1z"/>
	<path class="st0" d="M493.5,274c0,5.7-1.2,10.6-3.5,14.7c-2.3,4.1-5.4,7.4-9.4,10.1c-3.9,2.7-8.5,4.6-13.7,5.8
		c-5.2,1.2-10.7,1.8-16.6,1.8c-13,0-23.2-2.5-30.8-7.6c-7.5-5.1-11.3-13.4-11.3-24.8V183c0-1.2,0.6-1.8,1.8-1.8h31
		c1.2,0,1.8,0.6,1.8,1.8v78.3c0,5,0.6,8.3,1.8,9.9c1.2,1.6,3.5,2.5,6.7,2.5c3.3,0,5.5-0.9,6.6-2.7c1.1-1.8,1.6-5.1,1.6-9.8V183
		c0-1.2,0.6-1.8,1.8-1.8h30.2c1.2,0,1.8,0.6,1.8,1.8V274z"/>
	<path class="st0" d="M594.7,215.2c0,5.8-0.8,11-2.4,15.6c-1.6,4.6-4.1,9-7.6,13.2c-1.5,1.7-2.2,3.4-2.3,5c-0.1,1.6,0.4,3.7,1.4,6.1
		l17.7,48.3c0.1,0.4,0.1,0.7-0.1,1.1c-0.2,0.4-0.6,0.5-1.2,0.5h-34.2c-0.6,0-1.1-0.1-1.5-0.3s-0.7-0.7-0.9-1.5l-10.9-39
		c-0.4-1.2-1.1-1.8-2.2-1.8h-1.6c-0.5,0-0.9,0.1-1.2,0.2c-0.3,0.1-0.5,0.5-0.5,1.3v39.3c0,1.2-0.6,1.8-1.8,1.8H514
		c-1.2,0-1.8-0.6-1.8-1.8V183c0-1.2,0.6-1.8,1.8-1.8h42.8c12.9,0,22.4,2.7,28.6,8.2C591.6,194.8,594.7,203.4,594.7,215.2z
		 M558.8,222.1c0-5.6-0.7-9.3-2-11c-1.3-1.8-3.1-2.6-5.3-2.6h-2.4c-1,0-1.5,0.2-1.7,0.6c-0.2,0.4-0.3,0.8-0.3,1v26.6
		c0,0.4,0.1,0.7,0.3,1c0.2,0.3,0.8,0.5,1.7,0.5h0.9c1.7,0,3.1-0.2,4.2-0.7c1.1-0.5,2-1.3,2.6-2.5c0.7-1.2,1.2-2.9,1.5-4.9
		C558.7,227.9,558.8,225.3,558.8,222.1z"/>
	<path class="st0" d="M214.3,340.6c0-1.2,0.6-1.8,1.8-1.8h31.1c1.2,0,1.8,0.6,1.8,1.8v88.5c0,0.7,0.4,1.1,1.1,1.1h18.9
		c1.2,0,1.8,0.6,1.8,1.8v28.8c0,1.2-0.6,1.8-1.8,1.8h-53c-1.2,0-1.8-0.6-1.8-1.8V340.6z"/>
	<path class="st0" d="M376,400.7c0,11.5-1.1,21.9-3.3,31c-2.2,9.1-5.2,16-9.1,20.8c-3.6,4.6-8.3,7.7-14,9.3
		c-5.7,1.6-12.8,2.4-21.3,2.4c-8.5,0-15.5-0.8-21-2.4c-5.5-1.6-10.2-4.7-13.9-9.3c-3.9-4.7-6.9-11.7-9-20.8
		c-2.1-9.1-3.2-19.4-3.2-31c0-11.7,1.1-22,3.2-31c2.1-9,5.1-15.8,9-20.6c3.8-4.6,8.5-7.7,14.1-9.4c5.6-1.6,12.8-2.5,21.4-2.5
		c8.5,0,15.5,0.8,21,2.5c5.5,1.6,10.1,4.8,13.7,9.4c3.9,4.7,6.9,11.6,9.1,20.6C374.9,378.8,376,389.1,376,400.7z M318.5,400.7
		c0,6.2,0.2,11.7,0.5,16.6c0.3,4.9,0.8,8.3,1.5,10.4c0.6,1.5,1.7,2.5,3.3,3c1.6,0.5,3.2,0.8,4.9,0.8c1.8,0,3.5-0.3,4.9-0.8
		c1.5-0.5,2.5-1.5,3.1-3c0.8-2.1,1.4-5.5,1.6-10.4c0.2-4.9,0.4-10.4,0.4-16.6c0-6.4-0.1-12-0.4-16.8c-0.2-4.7-0.8-8.1-1.6-10.2
		c-0.6-1.5-1.6-2.5-3.1-3c-1.5-0.5-3-0.8-4.7-0.8c-1.8,0-3.5,0.3-5.1,0.8c-1.6,0.5-2.7,1.5-3.3,3c-0.7,2.1-1.2,5.5-1.5,10.2
		C318.6,388.7,318.5,394.3,318.5,400.7z"/>
	<path class="st0" d="M475.4,458c-0.2,0.3-0.8,0.6-1.6,1c-1.3,0.6-3.2,1.2-5.5,1.8c-2.3,0.6-4.9,1.2-7.7,1.6c-2.9,0.5-6,0.9-9.3,1.2
		c-3.3,0.3-6.6,0.5-9.9,0.5c-9.8,0-18.1-1.4-24.7-4.1c-6.6-2.7-12-6.7-16.1-12c-4.1-5.3-7.1-11.8-8.8-19.6
		c-1.8-7.8-2.6-16.7-2.6-26.8c0-10,0.9-18.9,2.6-26.8c1.8-7.9,4.7-14.6,8.8-20.2c4.1-5.6,9.7-9.9,16.6-12.8c6.9-3,15.5-4.5,25.9-4.5
		c4.7,0,9.5,0.2,14.3,0.6c4.8,0.4,8.8,1.1,11.9,2.1c0.6,0.1,0.9,0.7,0.9,1.6l-1.3,28.2c0,0.9-0.5,1.2-1.5,0.9
		c-2.5-0.5-5.3-0.9-8.2-1.2c-2.9-0.3-5.8-0.5-8.6-0.5c-3.6,0-6.9,0.2-9.7,0.6c-2.8,0.4-5.2,1.7-7.2,3.8c-2,2.1-3.5,5.4-4.6,9.7
		c-1,4.4-1.5,10.5-1.5,18.4c0,7.4,0.3,13.1,0.8,17.2c0.5,4.1,1.4,7.1,2.5,9c1.1,1.9,2.5,3.1,4.3,3.5c1.8,0.4,3.9,0.5,6.3,0.5
		c0.4,0,0.8,0,1.2-0.1c0.4-0.1,0.7-0.2,0.8-0.3c0.2-0.2,0.4-0.7,0.4-1.3v-14.8c0-0.7-0.4-1.1-1.1-1.1h-4.7c-1.2,0-1.8-0.6-1.8-1.8
		v-24.4c0-1.2,0.6-1.8,1.8-1.8H474c1.2,0,1.8,0.6,1.8,1.8v67.9C475.8,457.1,475.7,457.7,475.4,458z"/>
	<path class="st0" d="M586,400.7c0,11.5-1.1,21.9-3.3,31c-2.2,9.1-5.2,16-9.1,20.8c-3.6,4.6-8.3,7.7-14,9.3
		c-5.7,1.6-12.8,2.4-21.3,2.4c-8.5,0-15.5-0.8-21-2.4c-5.5-1.6-10.2-4.7-13.9-9.3c-3.9-4.7-6.9-11.7-9-20.8
		c-2.1-9.1-3.2-19.4-3.2-31c0-11.7,1.1-22,3.2-31c2.1-9,5.1-15.8,9-20.6c3.8-4.6,8.5-7.7,14.1-9.4c5.6-1.6,12.8-2.5,21.4-2.5
		c8.5,0,15.5,0.8,21,2.5c5.5,1.6,10.1,4.8,13.7,9.4c3.9,4.7,6.9,11.6,9.1,20.6C584.9,378.8,586,389.1,586,400.7z M528.4,400.7
		c0,6.2,0.2,11.7,0.5,16.6c0.3,4.9,0.8,8.3,1.5,10.4c0.6,1.5,1.7,2.5,3.3,3c1.6,0.5,3.2,0.8,4.9,0.8c1.8,0,3.5-0.3,4.9-0.8
		c1.5-0.5,2.5-1.5,3.1-3c0.8-2.1,1.4-5.5,1.6-10.4c0.2-4.9,0.4-10.4,0.4-16.6c0-6.4-0.1-12-0.4-16.8c-0.2-4.7-0.8-8.1-1.6-10.2
		c-0.6-1.5-1.6-2.5-3.1-3c-1.5-0.5-3-0.8-4.7-0.8c-1.8,0-3.5,0.3-5.1,0.8c-1.6,0.5-2.7,1.5-3.3,3c-0.7,2.1-1.2,5.5-1.5,10.2
		C528.6,388.7,528.4,394.3,528.4,400.7z"/>
	<path class="st0" d="M246.3,498.3c0-1.2,0.6-1.8,1.8-1.8h31c1.2,0,1.8,0.6,1.8,1.8v120.2c0,1.2-0.6,1.8-1.8,1.8h-31
		c-1.2,0-1.8-0.6-1.8-1.8v-44.1c0-0.7-0.4-1.1-1.1-1.1h-14c-0.7,0-1.1,0.4-1.1,1.1v44.1c0,1.2-0.6,1.8-1.8,1.8h-31
		c-1.2,0-1.8-0.6-1.8-1.8V498.3c0-1.2,0.6-1.8,1.8-1.8h31c1.2,0,1.8,0.6,1.8,1.8v42.4c0,0.7,0.4,1.1,1.1,1.1h14
		c0.7,0,1.1-0.4,1.1-1.1V498.3z"/>
	<path class="st0" d="M301.1,498.3c0-1.2,0.5-1.8,1.6-1.8h60.6c1.1,0,1.6,0.6,1.6,1.8V526c0,1.2-0.5,1.8-1.6,1.8H336
		c-0.6,0-0.9,0.4-0.9,1.1v12.2c0,0.7,0.3,1.1,0.9,1.1h24.2c1.1,0,1.6,0.6,1.6,1.8v26.6c0,1.2-0.5,1.8-1.6,1.8H336
		c-0.6,0-0.9,0.4-0.9,1.1v13.3c0,0.7,0.3,1.1,0.9,1.1h29.1c1,0,1.5,0.6,1.5,1.8v28.8c0,1.2-0.5,1.8-1.5,1.8h-62.5
		c-1.1,0-1.6-0.6-1.6-1.8V498.3z"/>
	<path class="st0" d="M465.7,530.5c0,5.8-0.8,11-2.4,15.6c-1.6,4.6-4.1,9-7.6,13.2c-1.5,1.7-2.2,3.4-2.3,5c-0.1,1.6,0.4,3.7,1.4,6.1
		l17.7,48.3c0.1,0.4,0.1,0.7-0.1,1.1c-0.2,0.4-0.6,0.5-1.2,0.5h-34.2c-0.6,0-1.1-0.1-1.5-0.3c-0.4-0.2-0.7-0.7-0.9-1.5l-10.9-39
		c-0.4-1.2-1.1-1.8-2.2-1.8h-1.6c-0.5,0-0.9,0.1-1.2,0.2c-0.3,0.1-0.5,0.5-0.5,1.3v39.3c0,1.2-0.6,1.8-1.8,1.8H385
		c-1.2,0-1.8-0.6-1.8-1.8V498.3c0-1.2,0.6-1.8,1.8-1.8h42.8c12.9,0,22.4,2.7,28.6,8.2S465.7,518.8,465.7,530.5z M429.8,537.5
		c0-5.6-0.7-9.3-2-11c-1.3-1.8-3.1-2.6-5.3-2.6h-2.4c-1,0-1.5,0.2-1.7,0.6c-0.2,0.4-0.3,0.8-0.3,1V552c0,0.4,0.1,0.7,0.3,1
		c0.2,0.3,0.8,0.5,1.7,0.5h0.9c1.7,0,3.1-0.2,4.2-0.7c1.1-0.5,2-1.3,2.6-2.5c0.7-1.2,1.2-2.9,1.5-4.9
		C429.7,543.2,429.8,540.6,429.8,537.5z"/>
	<path class="st0" d="M484.6,498.3c0-1.2,0.5-1.8,1.6-1.8h60.6c1.1,0,1.6,0.6,1.6,1.8V526c0,1.2-0.5,1.8-1.6,1.8h-27.3
		c-0.6,0-0.9,0.4-0.9,1.1v12.2c0,0.7,0.3,1.1,0.9,1.1h24.2c1.1,0,1.6,0.6,1.6,1.8v26.6c0,1.2-0.5,1.8-1.6,1.8h-24.2
		c-0.6,0-0.9,0.4-0.9,1.1v13.3c0,0.7,0.3,1.1,0.9,1.1h29.1c1,0,1.5,0.6,1.5,1.8v28.8c0,1.2-0.5,1.8-1.5,1.8h-62.5
		c-1.1,0-1.6-0.6-1.6-1.8V498.3z"/>
	<path class="st0" d="M570.8,573.9c-1.2,0-1.8-0.6-1.8-1.8l-4.7-73.8c0-1.2,0.6-1.8,1.8-1.8h36.8c1.2,0,1.8,0.6,1.8,1.8l-4.7,73.8
		c0,1.2-0.6,1.8-1.8,1.8H570.8z M568.2,620.3c-1.2,0-1.8-0.6-1.8-1.8v-29.7c0-1.2,0.6-1.8,1.8-1.8H599c1.2,0,1.8,0.6,1.8,1.8v29.7
		c0,1.2-0.6,1.8-1.8,1.8H568.2z"/>
</g>
</svg>
